<?xml version="1.0" encoding="UTF-8" standalone="no"?>
<!DOCTYPE svg PUBLIC "-//W3C//DTD SVG 20010904//EN"
              "http://www.w3.org/TR/2001/REC-SVG-20010904/DTD/svg10.dtd">

<svg xmlns="http://www.w3.org/2000/svg"
     width="0.16in" height="0.16in"
     viewBox="0 0 48 48">
  <path id="パス"
        fill="none" stroke="black" stroke-width="1"
        d="M 38.20,45.00
           C 38.20,45.00 31.17,45.00 31.17,45.00
             31.17,45.00 15.06,26.75 15.06,26.75
             15.06,26.75 11.02,31.09 11.02,31.09
             11.02,31.09 11.02,45.00 11.02,45.00
             11.02,45.00 5.61,45.00 5.61,45.00
             5.61,45.00 5.61,4.00 5.61,4.00
             5.61,4.00 11.02,4.00 11.02,4.00
             11.02,4.00 11.02,25.39 11.02,25.39
             11.02,25.39 30.80,4.00 30.80,4.00
             30.80,4.00 37.36,4.00 37.36,4.00
             37.36,4.00 19.17,23.28 19.17,23.28
             19.17,23.28 38.20,45.00 38.20,45.00 Z" />
</svg>
